{
  "source": "C:\\Users\\Peter\\Desktop\\stuff\\MIUN\\quantitative_research\\video_compression\\videos\\BVI-HD\\BVI-HD_CDVL_videos\\ORIG\\Fountain_1920x1080_50fps.mp4",
  "output": "C:\\Users\\Peter\\Desktop\\stuff\\MIUN\\quantitative_research\\video_compression\\compressed_videos\\BVI-HD\\vp9\\3\\Fountain_1920x1080_50fps_vp9.webm",
  "codec": "vp9",
  "ok": "Input #0, mov,mp4,m4a,3gp,3g2,mj2, from 'C:\\Users\\Peter\\Desktop\\stuff\\MIUN\\quantitative_research\\video_compression\\videos\\BVI-HD\\BVI-HD_CDVL_videos\\ORIG\\Fountain_1920x1080_50fps.mp4':\n  Metadata:\n    major_brand     : isom\n    minor_version   : 512\n    compatible_brands: isomiso2avc1mp41\n    encoder         : Lavf54.28.101\n  Duration: 00:00:05.00, start: 0.000000, bitrate: 603457 kb/s\n  Stream #0:0[0x1](und): Video: h264 (High 4:4:4 Predictive) (avc1 / 0x31637661), yuv420p(progressive), 1920x1080, 603453 kb/s, 50 fps, 50 tbr, 50 tbn (default)\n    Metadata:\n      handler_name    : VideoHandler\n      vendor_id       : [0][0][0][0]\n[out#0/webm @ 0000023d70be9a00] Codec AVOption b:a (set bitrate (in bits/s)) has not been used for any stream. The most likely reason is either wrong type (e.g. a video option with no video streams) or that it is a private option of some decoder which was not actually used for any stream.\nStream mapping:\n  Stream #0:0 -> #0:0 (h264 (native) -> vp9 (libvpx-vp9))\nPress [q] to stop, [?] for help\n[libvpx-vp9 @ 0000023d71710a00] v1.15.2-100-g40561f514\nOutput #0, webm, to 'C:\\Users\\Peter\\Desktop\\stuff\\MIUN\\quantitative_research\\video_compression\\compressed_videos\\BVI-HD\\vp9\\3\\Fountain_1920x1080_50fps_vp9.webm':\n  Metadata:\n    major_brand     : isom\n    minor_version   : 512\n    compatible_brands: isomiso2avc1mp41\n    encoder         : Lavf62.3.100\n  Stream #0:0(und): Video: vp9, yuv420p(tv, progressive), 1920x1080, q=2-31, 3000 kb/s, 50 fps, 1k tbn (default)\n    Metadata:\n      encoder         : Lavc62.11.100 libvpx-vp9\n      handler_name    : VideoHandler\n      vendor_id       : [0][0][0][0]\n    Side data:\n      cpb: bitrate max/min/avg: 0/0/0 buffer size: 3000000 vbv_delay: N/A\nframe=    0 fps=0.0 q=0.0 size=       0KiB time=N/A bitrate=N/A speed=N/A elapsed=0:00:00.51    \nframe=    1 fps=0.9 q=26.0 size=       1KiB time=00:00:00.02 bitrate= 253.6kbits/s speed=0.0182x elapsed=0:00:01.09    \nframe=    7 fps=4.3 q=54.0 size=       1KiB time=00:00:00.14 bitrate=  36.2kbits/s speed=0.0868x elapsed=0:00:01.61    \nframe=   11 fps=5.1 q=53.0 size=       1KiB time=00:00:00.22 bitrate=  23.1kbits/s speed=0.102x elapsed=0:00:02.14    \nframe=   15 fps=5.6 q=53.0 size=       1KiB time=00:00:00.30 bitrate=  16.9kbits/s speed=0.112x elapsed=0:00:02.67    \nframe=   20 fps=6.2 q=53.0 size=       1KiB time=00:00:00.40 bitrate=  12.7kbits/s speed=0.125x elapsed=0:00:03.20    \nframe=   23 fps=6.1 q=38.0 size=       1KiB time=00:00:00.46 bitrate=  11.0kbits/s speed=0.123x elapsed=0:00:03.74    \nframe=   27 fps=6.3 q=53.0 size=       1KiB time=00:00:00.54 bitrate=   9.4kbits/s speed=0.127x elapsed=0:00:04.26    \nframe=   32 fps=6.7 q=53.0 size=       1KiB time=00:00:00.64 bitrate=   7.9kbits/s speed=0.133x elapsed=0:00:04.79    \nframe=   35 fps=6.6 q=52.0 size=       1KiB time=00:00:00.70 bitrate=   7.2kbits/s speed=0.131x elapsed=0:00:05.34    \nframe=   39 fps=6.6 q=53.0 size=       1KiB time=00:00:00.78 bitrate=   6.5kbits/s speed=0.133x elapsed=0:00:05.87    \nframe=   43 fps=6.7 q=54.0 size=       1KiB time=00:00:00.86 bitrate=   5.9kbits/s speed=0.134x elapsed=0:00:06.43    \nframe=   45 fps=6.5 q=54.0 size=       1KiB time=00:00:00.90 bitrate=   5.6kbits/s speed=0.129x elapsed=0:00:06.96    \nframe=   50 fps=6.7 q=54.0 size=       1KiB time=00:00:01.00 bitrate=   5.1kbits/s speed=0.133x elapsed=0:00:07.49    \nframe=   53 fps=6.6 q=54.0 size=       1KiB time=00:00:01.06 bitrate=   4.8kbits/s speed=0.132x elapsed=0:00:08.03    \nframe=   57 fps=6.7 q=54.0 size=       1KiB time=00:00:01.12 bitrate=   4.5kbits/s speed=0.131x elapsed=0:00:08.54    \nframe=   60 fps=6.6 q=54.0 size=       1KiB time=00:00:01.20 bitrate=   4.2kbits/s speed=0.132x elapsed=0:00:09.06    \nframe=   63 fps=6.6 q=54.0 size=       1KiB time=00:00:01.26 bitrate=   4.0kbits/s speed=0.131x elapsed=0:00:09.59    \nframe=   65 fps=6.4 q=54.0 size=       1KiB time=00:00:01.30 bitrate=   3.9kbits/s speed=0.128x elapsed=0:00:10.12    \nframe=   69 fps=6.5 q=54.0 size=       1KiB time=00:00:01.38 bitrate=   3.7kbits/s speed=0.13x elapsed=0:00:10.64    \nframe=   71 fps=6.3 q=53.0 size=       1KiB time=00:00:01.42 bitrate=   3.6kbits/s speed=0.127x elapsed=0:00:11.21    \nframe=   73 fps=6.2 q=53.0 size=       1KiB time=00:00:01.46 bitrate=   3.5kbits/s speed=0.123x elapsed=0:00:11.84    \nframe=   75 fps=6.0 q=53.0 size=       1KiB time=00:00:01.50 bitrate=   3.4kbits/s speed=0.12x elapsed=0:00:12.45    \nframe=   77 fps=5.9 q=53.0 size=       1KiB time=00:00:01.52 bitrate=   3.3kbits/s speed=0.117x elapsed=0:00:13.03    \nframe=   79 fps=5.8 q=52.0 size=       1KiB time=00:00:01.58 bitrate=   3.2kbits/s speed=0.116x elapsed=0:00:13.64    \nframe=   81 fps=5.7 q=52.0 size=       1KiB time=00:00:01.62 bitrate=   3.1kbits/s speed=0.114x elapsed=0:00:14.20    \nframe=   85 fps=5.8 q=52.0 size=       1KiB time=00:00:01.70 bitrate=   3.0kbits/s speed=0.115x elapsed=0:00:14.76    \nframe=   87 fps=5.7 q=53.0 size=       1KiB time=00:00:01.74 bitrate=   2.9kbits/s speed=0.113x elapsed=0:00:15.34    \nframe=   90 fps=5.7 q=53.0 size=       1KiB time=00:00:01.80 bitrate=   2.8kbits/s speed=0.113x elapsed=0:00:15.89    \nframe=   93 fps=5.7 q=53.0 size=       1KiB time=00:00:01.86 bitrate=   2.7kbits/s speed=0.113x elapsed=0:00:16.42    \nframe=   96 fps=5.7 q=53.0 size=       1KiB time=00:00:01.92 bitrate=   2.6kbits/s speed=0.113x elapsed=0:00:16.98    \nframe=   98 fps=5.6 q=54.0 size=       1KiB time=00:00:01.96 bitrate=   2.6kbits/s speed=0.112x elapsed=0:00:17.55    \nframe=  101 fps=5.6 q=54.0 size=       1KiB time=00:00:02.02 bitrate=   2.5kbits/s speed=0.112x elapsed=0:00:18.11    \nframe=  104 fps=5.6 q=54.0 size=       1KiB time=00:00:02.08 bitrate=   2.4kbits/s speed=0.111x elapsed=0:00:18.71    \nframe=  106 fps=5.5 q=41.0 size=       1KiB time=00:00:02.12 bitrate=   2.4kbits/s speed=0.11x elapsed=0:00:19.26    \nframe=  108 fps=5.5 q=55.0 size=       1KiB time=00:00:02.16 bitrate=   2.3kbits/s speed=0.109x elapsed=0:00:19.79    \nframe=  111 fps=5.5 q=55.0 size=       1KiB time=00:00:02.22 bitrate=   2.3kbits/s speed=0.109x elapsed=0:00:20.35    \nframe=  112 fps=5.4 q=42.0 size=       1KiB time=00:00:02.24 bitrate=   2.3kbits/s speed=0.107x elapsed=0:00:20.90    \nframe=  115 fps=5.4 q=55.0 size=       1KiB time=00:00:02.30 bitrate=   2.2kbits/s speed=0.107x elapsed=0:00:21.41    \nframe=  117 fps=5.3 q=55.0 size=       1KiB time=00:00:02.34 bitrate=   2.2kbits/s speed=0.106x elapsed=0:00:21.97    \nframe=  119 fps=5.3 q=55.0 size=       1KiB time=00:00:02.38 bitrate=   2.1kbits/s speed=0.106x elapsed=0:00:22.55    \nframe=  122 fps=5.3 q=55.0 size=       1KiB time=00:00:02.44 bitrate=   2.1kbits/s speed=0.106x elapsed=0:00:23.11    \nframe=  124 fps=5.2 q=44.0 size=       1KiB time=00:00:02.48 bitrate=   2.0kbits/s speed=0.105x elapsed=0:00:23.65    \nframe=  127 fps=5.3 q=55.0 size=       1KiB time=00:00:02.54 bitrate=   2.0kbits/s speed=0.105x elapsed=0:00:24.18    \nframe=  129 fps=5.2 q=42.0 size=       1KiB time=00:00:02.56 bitrate=   2.0kbits/s speed=0.103x elapsed=0:00:24.73    \nframe=  132 fps=5.2 q=54.0 size=     768KiB time=00:00:02.64 bitrate=2383.1kbits/s speed=0.104x elapsed=0:00:25.36    \nframe=  134 fps=5.2 q=54.0 size=     768KiB time=00:00:02.68 bitrate=2347.6kbits/s speed=0.103x elapsed=0:00:25.90    \nframe=  136 fps=5.1 q=54.0 size=     768KiB time=00:00:02.72 bitrate=2313.0kbits/s speed=0.103x elapsed=0:00:26.50    \nframe=  139 fps=5.1 q=54.0 size=     768KiB time=00:00:02.78 bitrate=2263.1kbits/s speed=0.103x elapsed=0:00:27.07    \nframe=  140 fps=5.1 q=54.0 size=     768KiB time=00:00:02.80 bitrate=2246.9kbits/s speed=0.101x elapsed=0:00:27.60    \nframe=  144 fps=5.1 q=53.0 size=     768KiB time=00:00:02.86 bitrate=2199.8kbits/s speed=0.102x elapsed=0:00:28.11    \nframe=  146 fps=5.1 q=53.0 size=     768KiB time=00:00:02.92 bitrate=2154.6kbits/s speed=0.102x elapsed=0:00:28.69    \nframe=  149 fps=5.1 q=53.0 size=     768KiB time=00:00:02.98 bitrate=2111.2kbits/s speed=0.102x elapsed=0:00:29.25    \nframe=  151 fps=5.1 q=54.0 size=     768KiB time=00:00:03.02 bitrate=2083.3kbits/s speed=0.101x elapsed=0:00:29.79    \nframe=  152 fps=5.0 q=54.0 size=     768KiB time=00:00:03.04 bitrate=2069.6kbits/s speed= 0.1x elapsed=0:00:30.33    \nframe=  155 fps=5.0 q=54.0 size=     768KiB time=00:00:03.10 bitrate=2029.5kbits/s speed= 0.1x elapsed=0:00:30.90    \nframe=  157 fps=5.0 q=54.0 size=     768KiB time=00:00:03.14 bitrate=2003.6kbits/s speed=0.0997x elapsed=0:00:31.47    \nframe=  158 fps=4.9 q=54.0 size=     768KiB time=00:00:03.16 bitrate=1991.0kbits/s speed=0.0987x elapsed=0:00:32.00    \nframe=  161 fps=4.9 q=54.0 size=     768KiB time=00:00:03.22 bitrate=1953.9kbits/s speed=0.0989x elapsed=0:00:32.56    \nframe=  163 fps=4.9 q=54.0 size=     768KiB time=00:00:03.26 bitrate=1929.9kbits/s speed=0.0982x elapsed=0:00:33.18    \nframe=  165 fps=4.9 q=42.0 size=     768KiB time=00:00:03.30 bitrate=1906.5kbits/s speed=0.0978x elapsed=0:00:33.75    \nframe=  168 fps=4.9 q=53.0 size=     768KiB time=00:00:03.36 bitrate=1872.5kbits/s speed=0.098x elapsed=0:00:34.28    \nframe=  170 fps=4.9 q=53.0 size=     768KiB time=00:00:03.40 bitrate=1850.4kbits/s speed=0.0976x elapsed=0:00:34.82    \nframe=  173 fps=4.9 q=52.0 size=     768KiB time=00:00:03.46 bitrate=1818.3kbits/s speed=0.0978x elapsed=0:00:35.38    \nframe=  176 fps=4.9 q=52.0 size=     768KiB time=00:00:03.52 bitrate=1787.3kbits/s speed=0.0979x elapsed=0:00:35.95    \nframe=  177 fps=4.8 q=41.0 size=     768KiB time=00:00:03.54 bitrate=1777.2kbits/s speed=0.097x elapsed=0:00:36.50    \nframe=  179 fps=4.8 q=51.0 size=     768KiB time=00:00:03.58 bitrate=1757.4kbits/s speed=0.0966x elapsed=0:00:37.04    \nframe=  182 fps=4.8 q=51.0 size=     768KiB time=00:00:03.62 bitrate=1738.0kbits/s speed=0.0963x elapsed=0:00:37.58    \nframe=  183 fps=4.8 q=41.0 size=     768KiB time=00:00:03.66 bitrate=1719.0kbits/s speed=0.096x elapsed=0:00:38.13    \nframe=  186 fps=4.8 q=52.0 size=     768KiB time=00:00:03.72 bitrate=1691.3kbits/s speed=0.0962x elapsed=0:00:38.66    \nframe=  188 fps=4.8 q=52.0 size=     768KiB time=00:00:03.76 bitrate=1673.3kbits/s speed=0.0959x elapsed=0:00:39.20    \nframe=  190 fps=4.8 q=52.0 size=     768KiB time=00:00:03.80 bitrate=1655.6kbits/s speed=0.0956x elapsed=0:00:39.72    \nframe=  192 fps=4.8 q=53.0 size=     768KiB time=00:00:03.84 bitrate=1638.4kbits/s speed=0.0954x elapsed=0:00:40.25    \nframe=  194 fps=4.8 q=53.0 size=     768KiB time=00:00:03.88 bitrate=1621.5kbits/s speed=0.0951x elapsed=0:00:40.79    \nframe=  196 fps=4.7 q=54.0 size=     768KiB time=00:00:03.92 bitrate=1605.0kbits/s speed=0.0948x elapsed=0:00:41.35    \nframe=  199 fps=4.7 q=54.0 size=     768KiB time=00:00:03.98 bitrate=1580.8kbits/s speed=0.0949x elapsed=0:00:41.92    \nframe=  201 fps=4.7 q=41.0 size=     768KiB time=00:00:04.02 bitrate=1565.0kbits/s speed=0.0946x elapsed=0:00:42.47    \nframe=  204 fps=4.7 q=54.0 size=     768KiB time=00:00:04.08 bitrate=1542.0kbits/s speed=0.0949x elapsed=0:00:42.99    \nframe=  206 fps=4.7 q=54.0 size=     768KiB time=00:00:04.12 bitrate=1527.1kbits/s speed=0.0947x elapsed=0:00:43.51    \nframe=  208 fps=4.7 q=54.0 size=     768KiB time=00:00:04.16 bitrate=1512.4kbits/s speed=0.0943x elapsed=0:00:44.09    \nframe=  210 fps=4.7 q=54.0 size=     768KiB time=00:00:04.20 bitrate=1498.0kbits/s speed=0.0941x elapsed=0:00:44.63    \nframe=  212 fps=4.7 q=54.0 size=     768KiB time=00:00:04.24 bitrate=1483.8kbits/s speed=0.0939x elapsed=0:00:45.15    \nframe=  214 fps=4.7 q=51.0 size=     768KiB time=00:00:04.26 bitrate=1476.9kbits/s speed=0.0933x elapsed=0:00:45.67    \nframe=  216 fps=4.7 q=52.0 size=     768KiB time=00:00:04.32 bitrate=1456.4kbits/s speed=0.0934x elapsed=0:00:46.26    \nframe=  218 fps=4.7 q=52.0 size=     768KiB time=00:00:04.36 bitrate=1443.0kbits/s speed=0.0931x elapsed=0:00:46.84    \nframe=  221 fps=4.7 q=53.0 size=     768KiB time=00:00:04.42 bitrate=1423.4kbits/s speed=0.0933x elapsed=0:00:47.35    \nframe=  223 fps=4.7 q=53.0 size=     768KiB time=00:00:04.46 bitrate=1410.6kbits/s speed=0.0931x elapsed=0:00:47.91    \nframe=  225 fps=4.6 q=55.0 size=     768KiB time=00:00:04.50 bitrate=1398.1kbits/s speed=0.0928x elapsed=0:00:48.47    \nframe=  226 fps=4.6 q=55.0 size=     768KiB time=00:00:04.52 bitrate=1391.9kbits/s speed=0.0923x elapsed=0:00:48.99    \nframe=  226 fps=4.6 q=55.0 size=     768KiB time=00:00:04.52 bitrate=1391.9kbits/s speed=0.0912x elapsed=0:00:49.53    \nframe=  226 fps=4.5 q=55.0 size=     768KiB time=00:00:04.52 bitrate=1391.9kbits/s speed=0.0902x elapsed=0:00:50.09    \nframe=  226 fps=4.5 q=55.0 size=     768KiB time=00:00:04.52 bitrate=1391.9kbits/s speed=0.0893x elapsed=0:00:50.62    \nframe=  226 fps=4.4 q=55.0 size=     768KiB time=00:00:04.52 bitrate=1391.9kbits/s speed=0.0883x elapsed=0:00:51.18    \nframe=  226 fps=4.4 q=55.0 size=     768KiB time=00:00:04.52 bitrate=1391.9kbits/s speed=0.0874x elapsed=0:00:51.71    \nframe=  226 fps=4.3 q=55.0 size=     768KiB time=00:00:04.52 bitrate=1391.9kbits/s speed=0.0865x elapsed=0:00:52.23    \nframe=  226 fps=4.3 q=55.0 size=     768KiB time=00:00:04.52 bitrate=1391.9kbits/s speed=0.0855x elapsed=0:00:52.84    \nframe=  226 fps=4.2 q=55.0 size=     768KiB time=00:00:04.52 bitrate=1391.9kbits/s speed=0.0846x elapsed=0:00:53.43    \nframe=  226 fps=4.2 q=55.0 size=     768KiB time=00:00:04.52 bitrate=1391.9kbits/s speed=0.0837x elapsed=0:00:54.03    \n[out#0/webm @ 0000023d70be9a00] video:1948KiB audio:0KiB subtitle:0KiB other streams:0KiB global headers:0KiB muxing overhead: 0.124395%\nframe=  250 fps=4.6 q=56.0 Lsize=    1951KiB time=00:00:05.00 bitrate=3196.4kbits/s speed=0.0924x elapsed=0:00:54.08    \n",
  "seconds": 54.5728325843811,
  "probe_out": {}
}